# xmcd
#
# Track frame offsets: 
#        150
#        14477
#        26210
#        39035
#        50627
#        66037
#        80335
#        95705
#        106412
#        117890
#        131952
#        145267
#        156310
#        170137
#        188632
#        198460
#        211255
#        227985
#        240725
#        252710
#
# Disc length: 3513 seconds
#
# Revision: 0
# Processed by: cddbd v1.5.2PL0 Copyright (c) Steve Scherf et al.
# Submitted via: ExactAudioCopyFreeDBPlugin 1.0
#
DISCID=290db714
DTITLE=Susan McCann - Twenty Country Classics
DYEAR=1900
DGENRE=Country
TTITLE0=Queen Of Hearts
TTITLE1=When The New Wears Off Our Love
TTITLE2=I Fall To Pieces
TTITLE3=Before The Next Teardrop Falls
TTITLE4=Thank God I'm A Country Girl
TTITLE5=No One Will Ever Know
TTITLE6=Radio Heart
TTITLE7=Close Up The Honky-Tonks
TTITLE8=Funny Face
TTITLE9=I Never Promised You A Rose Garden
TTITLE10=Silver Threads And Golden Needles
TTITLE11=I Couldn't Care Less
TTITLE12=Out Of Reach Of My Open Arms
TTITLE13=You Seldom Come To See Me Any More
TTITLE14=Iney-Iney-It-Zy-Iney
TTITLE15=It Only Hurts For A Little While
TTITLE16=Sunday Morning Christian
TTITLE17=Am I That Easy To Forget
TTITLE18=Shutters And Boards
TTITLE19=There's A Built-In Trouble Maker In Every Man
EXTD=
EXTT0=
EXTT1=
EXTT2=
EXTT3=
EXTT4=
EXTT5=
EXTT6=
EXTT7=
EXTT8=
EXTT9=
EXTT10=
EXTT11=
EXTT12=
EXTT13=
EXTT14=
EXTT15=
EXTT16=
EXTT17=
EXTT18=
EXTT19=
PLAYORDER=
